<?xml version="1.0" standalone="no"?><!DOCTYPE svg PUBLIC "-//W3C//DTD SVG 1.1//EN" "http://www.w3.org/Graphics/SVG/1.1/DTD/svg11.dtd"><svg class="icon" width="200px" height="200.00px" viewBox="0 0 1024 1024" version="1.1" xmlns="http://www.w3.org/2000/svg"><path fill="#000000" d="M838.77844656 290.63395556l-179.75588572-177.53667726 0.55480213 177.53667726h179.20108359z"  /><path fill="#000000" d="M624.62482963 324.47688465V96.45321481H171.35150053v831.09357038h681.29699894V324.47688465h-228.02366984zM309.49722751 389.38873227c0-4.43841693 3.88361481-8.32203175 8.32203175-8.32203174h245.22253545c4.43841693 0 8.32203175 3.88361481 8.32203175 8.32203174v33.28812699c0 4.43841693-3.88361481 8.32203175-8.32203175 8.32203174H317.81925926c-4.43841693 0-8.32203175-3.88361481-8.32203175-8.32203174v-33.28812699z m396.68351323 314.5728c0 4.43841693-3.88361481 8.32203175-8.32203174 8.32203175H317.81925926c-4.43841693 0-8.32203175-3.88361481-8.32203175-8.32203175v-33.28812698c0-4.43841693 3.88361481-8.32203175 8.32203175-8.32203175h380.03944974c4.43841693 0 8.32203175 3.88361481 8.32203174 8.32203175v33.28812698z m0-141.47453968c0 4.43841693-3.88361481 8.32203175-8.32203174 8.32203175H317.81925926c-4.43841693 0-8.32203175-3.88361481-8.32203175-8.32203175v-33.28812698c0-4.43841693 3.88361481-8.32203175 8.32203175-8.32203175h380.03944974c4.43841693 0 8.32203175 3.88361481 8.32203174 8.32203175v33.28812698z"  /></svg>